<svg width="141" height="179" viewBox="0 0 141 179" fill="none" xmlns="http://www.w3.org/2000/svg">
<path d="M63.2547 175.388C9.90305 101.747 0 94.1893 0 67.125C0 30.0528 31.5638 0 70.5 0C109.436 0 141 30.0528 141 67.125C141 94.1893 131.097 101.747 77.7453 175.388C74.2442 180.204 66.7554 180.204 63.2547 175.388ZM70.5 95.0937C86.7234 95.0937 99.875 82.5718 99.875 67.125C99.875 51.6782 86.7234 39.1562 70.5 39.1562C54.2766 39.1562 41.125 51.6782 41.125 67.125C41.125 82.5718 54.2766 95.0937 70.5 95.0937Z" fill="#C7212B"/>
</svg>
